<svg width="353" height="73" viewBox="0 0 353 73" fill="none" xmlns="http://www.w3.org/2000/svg">
<path d="M18.0909 72.1591C14.7727 72.1591 11.7727 71.5455 9.09091 70.3182C6.40909 69.0682 4.28409 67.2614 2.71591 64.8977C1.17045 62.5341 0.397727 59.6364 0.397727 56.2045C0.397727 53.25 0.965909 50.8182 2.10227 48.9091C3.23864 47 4.77273 45.4886 6.70455 44.375C8.63636 43.2614 10.7955 42.4205 13.1818 41.8523C15.5682 41.2841 18 40.8523 20.4773 40.5568C23.6136 40.1932 26.1591 39.8977 28.1136 39.6705C30.0682 39.4205 31.4886 39.0227 32.375 38.4773C33.2614 37.9318 33.7045 37.0455 33.7045 35.8182V35.5795C33.7045 32.6023 32.8636 30.2955 31.1818 28.6591C29.5227 27.0227 27.0455 26.2045 23.75 26.2045C20.3182 26.2045 17.6136 26.9659 15.6364 28.4886C13.6818 29.9886 12.3295 31.6591 11.5795 33.5L2 31.3182C3.13636 28.1364 4.79545 25.5682 6.97727 23.6136C9.18182 21.6364 11.7159 20.2045 14.5795 19.3182C17.4432 18.4091 20.4545 17.9545 23.6136 17.9545C25.7045 17.9545 27.9205 18.2045 30.2614 18.7045C32.625 19.1818 34.8295 20.0682 36.875 21.3636C38.9432 22.6591 40.6364 24.5114 41.9545 26.9205C43.2727 29.3068 43.9318 32.4091 43.9318 36.2273V71H33.9773V63.8409H33.5682C32.9091 65.1591 31.9205 66.4545 30.6023 67.7273C29.2841 69 27.5909 70.0568 25.5227 70.8977C23.4545 71.7386 20.9773 72.1591 18.0909 72.1591ZM20.3068 63.9773C23.125 63.9773 25.5341 63.4205 27.5341 62.3068C29.5568 61.1932 31.0909 59.7386 32.1364 57.9432C33.2045 56.125 33.7386 54.1818 33.7386 52.1136V45.3636C33.375 45.7273 32.6705 46.0682 31.625 46.3864C30.6023 46.6818 29.4318 46.9432 28.1136 47.1705C26.7955 47.375 25.5114 47.5682 24.2614 47.75C23.0114 47.9091 21.9659 48.0455 21.125 48.1591C19.1477 48.4091 17.3409 48.8295 15.7045 49.4205C14.0909 50.0114 12.7955 50.8636 11.8182 51.9773C10.8636 53.0682 10.3864 54.5227 10.3864 56.3409C10.3864 58.8636 11.3182 60.7727 13.1818 62.0682C15.0455 63.3409 17.4205 63.9773 20.3068 63.9773ZM67.7017 39.9091V71H57.5085V18.6364H67.2926V27.1591H67.9403C69.1449 24.3864 71.0313 22.1591 73.5994 20.4773C76.1903 18.7955 79.4517 17.9545 83.3835 17.9545C86.9517 17.9545 90.0767 18.7045 92.7585 20.2045C95.4403 21.6818 97.5199 23.8864 98.9972 26.8182C100.474 29.75 101.213 33.375 101.213 37.6932V71H91.0199V38.9205C91.0199 35.125 90.0313 32.1591 88.054 30.0227C86.0767 27.8636 83.3608 26.7841 79.9062 26.7841C77.5426 26.7841 75.4403 27.2955 73.5994 28.3182C71.7813 29.3409 70.3381 30.8409 69.2699 32.8182C68.2244 34.7727 67.7017 37.1364 67.7017 39.9091ZM134.486 72.0227C130.259 72.0227 126.486 70.9432 123.168 68.7841C119.872 66.6023 117.281 63.5 115.395 59.4773C113.531 55.4318 112.599 50.5795 112.599 44.9205C112.599 39.2614 113.543 34.4205 115.429 30.3977C117.338 26.375 119.952 23.2955 123.27 21.1591C126.588 19.0227 130.349 17.9545 134.554 17.9545C137.804 17.9545 140.418 18.5 142.395 19.5909C144.395 20.6591 145.94 21.9091 147.031 23.3409C148.145 24.7727 149.009 26.0341 149.622 27.125H150.236V1.18182H160.429V71H150.474V62.8523H149.622C149.009 63.9659 148.122 65.2386 146.963 66.6705C145.827 68.1023 144.259 69.3523 142.259 70.4205C140.259 71.4886 137.668 72.0227 134.486 72.0227ZM136.736 63.3295C139.668 63.3295 142.145 62.5568 144.168 61.0114C146.213 59.4432 147.759 57.2727 148.804 54.5C149.872 51.7273 150.406 48.5 150.406 44.8182C150.406 41.1818 149.884 38 148.838 35.2727C147.793 32.5455 146.259 30.4205 144.236 28.8977C142.213 27.375 139.713 26.6136 136.736 26.6136C133.668 26.6136 131.111 27.4091 129.065 29C127.02 30.5909 125.474 32.7614 124.429 35.5114C123.406 38.2614 122.895 41.3636 122.895 44.8182C122.895 48.3182 123.418 51.4659 124.463 54.2614C125.509 57.0568 127.054 59.2727 129.099 60.9091C131.168 62.5227 133.713 63.3295 136.736 63.3295ZM239.281 19.5227C238.918 16.2955 237.418 13.7955 234.781 12.0227C232.145 10.2273 228.827 9.32955 224.827 9.32955C221.963 9.32955 219.486 9.78409 217.395 10.6932C215.304 11.5795 213.679 12.8068 212.52 14.375C211.384 15.9205 210.815 17.6818 210.815 19.6591C210.815 21.3182 211.202 22.75 211.974 23.9545C212.77 25.1591 213.804 26.1705 215.077 26.9886C216.372 27.7841 217.759 28.4545 219.236 29C220.713 29.5227 222.134 29.9545 223.497 30.2955L230.315 32.0682C232.543 32.6136 234.827 33.3523 237.168 34.2841C239.509 35.2159 241.679 36.4432 243.679 37.9659C245.679 39.4886 247.293 41.375 248.52 43.625C249.77 45.875 250.395 48.5682 250.395 51.7045C250.395 55.6591 249.372 59.1705 247.327 62.2386C245.304 65.3068 242.361 67.7273 238.497 69.5C234.656 71.2727 230.009 72.1591 224.554 72.1591C219.327 72.1591 214.804 71.3295 210.986 69.6705C207.168 68.0114 204.179 65.6591 202.02 62.6136C199.861 59.5455 198.668 55.9091 198.44 51.7045H209.009C209.213 54.2273 210.031 56.3295 211.463 58.0114C212.918 59.6705 214.77 60.9091 217.02 61.7273C219.293 62.5227 221.781 62.9205 224.486 62.9205C227.463 62.9205 230.111 62.4545 232.429 61.5227C234.77 60.5682 236.611 59.25 237.952 57.5682C239.293 55.8636 239.963 53.875 239.963 51.6023C239.963 49.5341 239.372 47.8409 238.19 46.5227C237.031 45.2045 235.452 44.1136 233.452 43.25C231.474 42.3864 229.236 41.625 226.736 40.9659L218.486 38.7159C212.895 37.1932 208.463 34.9545 205.19 32C201.94 29.0455 200.315 25.1364 200.315 20.2727C200.315 16.25 201.406 12.7386 203.588 9.73863C205.77 6.73863 208.724 4.40909 212.452 2.75C216.179 1.06818 220.384 0.22727 225.065 0.22727C229.793 0.22727 233.963 1.05682 237.577 2.71591C241.213 4.375 244.077 6.65909 246.168 9.56818C248.259 12.4545 249.349 15.7727 249.44 19.5227H239.281ZM284.733 72.0568C279.574 72.0568 275.131 70.9545 271.403 68.75C267.699 66.5227 264.835 63.3977 262.812 59.375C260.812 55.3295 259.812 50.5909 259.812 45.1591C259.812 39.7955 260.812 35.0682 262.812 30.9773C264.835 26.8864 267.653 23.6932 271.267 21.3977C274.903 19.1023 279.153 17.9545 284.017 17.9545C286.972 17.9545 289.835 18.4432 292.608 19.4205C295.381 20.3977 297.869 21.9318 300.074 24.0227C302.278 26.1136 304.017 28.8295 305.29 32.1705C306.563 35.4886 307.199 39.5227 307.199 44.2727V47.8864H265.574V40.25H297.21C297.21 37.5682 296.665 35.1932 295.574 33.125C294.483 31.0341 292.949 29.3864 290.972 28.1818C289.017 26.9773 286.722 26.375 284.085 26.375C281.222 26.375 278.722 27.0795 276.585 28.4886C274.472 29.875 272.835 31.6932 271.676 33.9432C270.54 36.1705 269.972 38.5909 269.972 41.2045V47.1705C269.972 50.6705 270.585 53.6477 271.812 56.1023C273.062 58.5568 274.801 60.4318 277.028 61.7273C279.256 63 281.858 63.6364 284.835 63.6364C286.767 63.6364 288.528 63.3636 290.119 62.8182C291.71 62.25 293.085 61.4091 294.244 60.2955C295.403 59.1818 296.29 57.8068 296.903 56.1705L306.551 57.9091C305.778 60.75 304.392 63.2386 302.392 65.375C300.415 67.4886 297.926 69.1364 294.926 70.3182C291.949 71.4773 288.551 72.0568 284.733 72.0568ZM328.702 1.18182V71H318.509V1.18182H328.702ZM352.608 1.18182V71H342.415V1.18182H352.608Z" fill="white"/>
</svg>
