<svg width="315" height="73" viewBox="0 0 315 73" fill="none" xmlns="http://www.w3.org/2000/svg">
<path d="M60.6591 23.8864H50.0227C49.6136 21.6136 48.8523 19.6136 47.7386 17.8864C46.625 16.1591 45.2614 14.6932 43.6477 13.4886C42.0341 12.2841 40.2273 11.375 38.2273 10.7614C36.25 10.1477 34.1477 9.84091 31.9205 9.84091C27.8977 9.84091 24.2955 10.8523 21.1136 12.875C17.9545 14.8977 15.4545 17.8636 13.6136 21.7727C11.7955 25.6818 10.8864 30.4545 10.8864 36.0909C10.8864 41.7727 11.7955 46.5682 13.6136 50.4773C15.4545 54.3864 17.9659 57.3409 21.1477 59.3409C24.3295 61.3409 27.9091 62.3409 31.8864 62.3409C34.0909 62.3409 36.1818 62.0455 38.1591 61.4545C40.1591 60.8409 41.9659 59.9432 43.5795 58.7614C45.1932 57.5795 46.5568 56.1364 47.6705 54.4318C48.8068 52.7045 49.5909 50.7273 50.0227 48.5L60.6591 48.5341C60.0909 51.9659 58.9886 55.125 57.3523 58.0114C55.7386 60.875 53.6591 63.3523 51.1136 65.4432C48.5909 67.5114 45.7045 69.1136 42.4545 70.25C39.2045 71.3864 35.6591 71.9545 31.8182 71.9545C25.7727 71.9545 20.3864 70.5227 15.6591 67.6591C10.9318 64.7727 7.20455 60.6477 4.47727 55.2841C1.77273 49.9205 0.420455 43.5227 0.420455 36.0909C0.420455 28.6364 1.78409 22.2386 4.51136 16.8977C7.23864 11.5341 10.9659 7.42045 15.6932 4.55682C20.4205 1.67045 25.7955 0.22727 31.8182 0.22727C35.5227 0.22727 38.9773 0.761362 42.1818 1.82955C45.4091 2.875 48.3068 4.42045 50.875 6.46591C53.4432 8.48864 55.5682 10.9659 57.25 13.8977C58.9318 16.8068 60.0682 20.1364 60.6591 23.8864ZM94.5028 72.0568C89.5938 72.0568 85.3097 70.9318 81.6506 68.6818C77.9915 66.4318 75.1506 63.2841 73.1278 59.2386C71.1051 55.1932 70.0938 50.4659 70.0938 45.0568C70.0938 39.625 71.1051 34.875 73.1278 30.8068C75.1506 26.7386 77.9915 23.5795 81.6506 21.3295C85.3097 19.0795 89.5938 17.9545 94.5028 17.9545C99.4119 17.9545 103.696 19.0795 107.355 21.3295C111.014 23.5795 113.855 26.7386 115.878 30.8068C117.901 34.875 118.912 39.625 118.912 45.0568C118.912 50.4659 117.901 55.1932 115.878 59.2386C113.855 63.2841 111.014 66.4318 107.355 68.6818C103.696 70.9318 99.4119 72.0568 94.5028 72.0568ZM94.5369 63.5C97.7188 63.5 100.355 62.6591 102.446 60.9773C104.537 59.2955 106.082 57.0568 107.082 54.2614C108.105 51.4659 108.616 48.3864 108.616 45.0227C108.616 41.6818 108.105 38.6136 107.082 35.8182C106.082 33 104.537 30.7386 102.446 29.0341C100.355 27.3295 97.7188 26.4773 94.5369 26.4773C91.3324 26.4773 88.6733 27.3295 86.5597 29.0341C84.4688 30.7386 82.9119 33 81.8892 35.8182C80.8892 38.6136 80.3892 41.6818 80.3892 45.0227C80.3892 48.3864 80.8892 51.4659 81.8892 54.2614C82.9119 57.0568 84.4688 59.2955 86.5597 60.9773C88.6733 62.6591 91.3324 63.5 94.5369 63.5ZM140.483 1.18182V71H130.29V1.18182H140.483ZM164.389 1.18182V71H154.196V1.18182H164.389ZM200.67 72.0568C195.511 72.0568 191.068 70.9545 187.341 68.75C183.636 66.5227 180.773 63.3977 178.75 59.375C176.75 55.3295 175.75 50.5909 175.75 45.1591C175.75 39.7955 176.75 35.0682 178.75 30.9773C180.773 26.8864 183.591 23.6932 187.205 21.3977C190.841 19.1023 195.091 17.9545 199.955 17.9545C202.909 17.9545 205.773 18.4432 208.545 19.4205C211.318 20.3977 213.807 21.9318 216.011 24.0227C218.216 26.1136 219.955 28.8295 221.227 32.1705C222.5 35.4886 223.136 39.5227 223.136 44.2727V47.8864H181.511V40.25H213.148C213.148 37.5682 212.602 35.1932 211.511 33.125C210.42 31.0341 208.886 29.3864 206.909 28.1818C204.955 26.9773 202.659 26.375 200.023 26.375C197.159 26.375 194.659 27.0795 192.523 28.4886C190.409 29.875 188.773 31.6932 187.614 33.9432C186.477 36.1705 185.909 38.5909 185.909 41.2045V47.1705C185.909 50.6705 186.523 53.6477 187.75 56.1023C189 58.5568 190.739 60.4318 192.966 61.7273C195.193 63 197.795 63.6364 200.773 63.6364C202.705 63.6364 204.466 63.3636 206.057 62.8182C207.648 62.25 209.023 61.4091 210.182 60.2955C211.341 59.1818 212.227 57.8068 212.841 56.1705L222.489 57.9091C221.716 60.75 220.33 63.2386 218.33 65.375C216.352 67.4886 213.864 69.1364 210.864 70.3182C207.886 71.4773 204.489 72.0568 200.67 72.0568ZM256.503 72.0568C251.435 72.0568 247.071 70.9091 243.412 68.6136C239.776 66.2955 236.98 63.1023 235.026 59.0341C233.071 54.9659 232.094 50.3068 232.094 45.0568C232.094 39.7386 233.094 35.0455 235.094 30.9773C237.094 26.8864 239.912 23.6932 243.548 21.3977C247.185 19.1023 251.469 17.9545 256.401 17.9545C260.378 17.9545 263.923 18.6932 267.037 20.1705C270.151 21.625 272.662 23.6705 274.571 26.3068C276.503 28.9432 277.651 32.0227 278.014 35.5455H268.094C267.548 33.0909 266.298 30.9773 264.344 29.2045C262.412 27.4318 259.821 26.5455 256.571 26.5455C253.73 26.5455 251.241 27.2955 249.105 28.7955C246.991 30.2727 245.344 32.3864 244.162 35.1364C242.98 37.8636 242.389 41.0909 242.389 44.8182C242.389 48.6364 242.969 51.9318 244.128 54.7045C245.287 57.4773 246.923 59.625 249.037 61.1477C251.173 62.6705 253.685 63.4318 256.571 63.4318C258.503 63.4318 260.253 63.0795 261.821 62.375C263.412 61.6477 264.741 60.6136 265.81 59.2727C266.901 57.9318 267.662 56.3182 268.094 54.4318H278.014C277.651 57.8182 276.548 60.8409 274.707 63.5C272.866 66.1591 270.401 68.25 267.31 69.7727C264.241 71.2955 260.639 72.0568 256.503 72.0568ZM313.358 18.6364V26.8182H284.756V18.6364H313.358ZM292.426 6.09091H302.619V55.625C302.619 57.6023 302.915 59.0909 303.506 60.0909C304.097 61.0682 304.858 61.7386 305.79 62.1023C306.744 62.4432 307.778 62.6136 308.892 62.6136C309.71 62.6136 310.426 62.5568 311.04 62.4432C311.653 62.3295 312.131 62.2386 312.472 62.1705L314.312 70.5909C313.722 70.8182 312.881 71.0455 311.79 71.2727C310.699 71.5227 309.335 71.6591 307.699 71.6818C305.017 71.7273 302.517 71.25 300.199 70.25C297.881 69.25 296.006 67.7045 294.574 65.6136C293.142 63.5227 292.426 60.8977 292.426 57.7386V6.09091Z" fill="white"/>
</svg>
