<svg width="392" height="75" viewBox="0 0 392 75" fill="none" xmlns="http://www.w3.org/2000/svg">
<path d="M23.2727 73H0.670455V3.18182H23.9886C30.8295 3.18182 36.7045 4.57954 41.6136 7.375C46.5227 10.1477 50.2841 14.1364 52.8977 19.3409C55.5341 24.5227 56.8523 30.7386 56.8523 37.9886C56.8523 45.2614 55.5227 51.5114 52.8636 56.7386C50.2273 61.9659 46.4091 65.9886 41.4091 68.8068C36.4091 71.6023 30.3636 73 23.2727 73ZM11.2045 63.7955H22.6932C28.0114 63.7955 32.4318 62.7955 35.9545 60.7955C39.4773 58.7727 42.1136 55.8523 43.8636 52.0341C45.6136 48.1932 46.4886 43.5114 46.4886 37.9886C46.4886 32.5114 45.6136 27.8636 43.8636 24.0455C42.1364 20.2273 39.5568 17.3295 36.125 15.3523C32.6932 13.375 28.4318 12.3864 23.3409 12.3864H11.2045V63.7955ZM69.1335 73V20.6364H79.3267V73H69.1335ZM74.2812 12.5568C72.5085 12.5568 70.9858 11.9659 69.7131 10.7841C68.4631 9.57954 67.8381 8.14772 67.8381 6.48863C67.8381 4.80682 68.4631 3.375 69.7131 2.19318C70.9858 0.988634 72.5085 0.386362 74.2812 0.386362C76.054 0.386362 77.5653 0.988634 78.8153 2.19318C80.0881 3.375 80.7244 4.80682 80.7244 6.48863C80.7244 8.14772 80.0881 9.57954 78.8153 10.7841C77.5653 11.9659 76.054 12.5568 74.2812 12.5568ZM132.278 33.4205L123.04 35.0568C122.653 33.875 122.04 32.75 121.199 31.6818C120.381 30.6136 119.267 29.7386 117.858 29.0568C116.449 28.375 114.688 28.0341 112.574 28.0341C109.688 28.0341 107.278 28.6818 105.347 29.9773C103.415 31.25 102.449 32.8977 102.449 34.9205C102.449 36.6705 103.097 38.0795 104.392 39.1477C105.688 40.2159 107.778 41.0909 110.665 41.7727L118.983 43.6818C123.801 44.7955 127.392 46.5114 129.756 48.8295C132.119 51.1477 133.301 54.1591 133.301 57.8636C133.301 61 132.392 63.7955 130.574 66.25C128.778 68.6818 126.267 70.5909 123.04 71.9773C119.835 73.3636 116.119 74.0568 111.892 74.0568C106.028 74.0568 101.244 72.8068 97.5398 70.3068C93.8352 67.7841 91.5625 64.2045 90.7216 59.5682L100.574 58.0682C101.188 60.6364 102.449 62.5795 104.358 63.8977C106.267 65.1932 108.756 65.8409 111.824 65.8409C115.165 65.8409 117.835 65.1477 119.835 63.7614C121.835 62.3523 122.835 60.6364 122.835 58.6136C122.835 56.9773 122.222 55.6023 120.994 54.4886C119.79 53.375 117.938 52.5341 115.438 51.9659L106.574 50.0227C101.688 48.9091 98.0739 47.1364 95.733 44.7045C93.4148 42.2727 92.2557 39.1932 92.2557 35.4659C92.2557 32.375 93.1193 29.6705 94.8466 27.3523C96.5739 25.0341 98.9602 23.2273 102.006 21.9318C105.051 20.6136 108.54 19.9545 112.472 19.9545C118.131 19.9545 122.585 21.1818 125.835 23.6364C129.085 26.0682 131.233 29.3295 132.278 33.4205ZM166.565 74.0568C161.497 74.0568 157.134 72.9091 153.474 70.6136C149.838 68.2955 147.043 65.1023 145.088 61.0341C143.134 56.9659 142.156 52.3068 142.156 47.0568C142.156 41.7386 143.156 37.0455 145.156 32.9773C147.156 28.8864 149.974 25.6932 153.611 23.3977C157.247 21.1023 161.531 19.9545 166.463 19.9545C170.44 19.9545 173.986 20.6932 177.099 22.1705C180.213 23.625 182.724 25.6705 184.634 28.3068C186.565 30.9432 187.713 34.0227 188.077 37.5455H178.156C177.611 35.0909 176.361 32.9773 174.406 31.2045C172.474 29.4318 169.884 28.5455 166.634 28.5455C163.793 28.5455 161.304 29.2955 159.168 30.7955C157.054 32.2727 155.406 34.3864 154.224 37.1364C153.043 39.8636 152.452 43.0909 152.452 46.8182C152.452 50.6364 153.031 53.9318 154.19 56.7045C155.349 59.4773 156.986 61.625 159.099 63.1477C161.236 64.6705 163.747 65.4318 166.634 65.4318C168.565 65.4318 170.315 65.0795 171.884 64.375C173.474 63.6477 174.804 62.6136 175.872 61.2727C176.963 59.9318 177.724 58.3182 178.156 56.4318H188.077C187.713 59.8182 186.611 62.8409 184.77 65.5C182.929 68.1591 180.463 70.25 177.372 71.7727C174.304 73.2955 170.702 74.0568 166.565 74.0568ZM221.034 74.0568C216.125 74.0568 211.841 72.9318 208.182 70.6818C204.523 68.4318 201.682 65.2841 199.659 61.2386C197.636 57.1932 196.625 52.4659 196.625 47.0568C196.625 41.625 197.636 36.875 199.659 32.8068C201.682 28.7386 204.523 25.5795 208.182 23.3295C211.841 21.0795 216.125 19.9545 221.034 19.9545C225.943 19.9545 230.227 21.0795 233.886 23.3295C237.545 25.5795 240.386 28.7386 242.409 32.8068C244.432 36.875 245.443 41.625 245.443 47.0568C245.443 52.4659 244.432 57.1932 242.409 61.2386C240.386 65.2841 237.545 68.4318 233.886 70.6818C230.227 72.9318 225.943 74.0568 221.034 74.0568ZM221.068 65.5C224.25 65.5 226.886 64.6591 228.977 62.9773C231.068 61.2955 232.614 59.0568 233.614 56.2614C234.636 53.4659 235.148 50.3864 235.148 47.0227C235.148 43.6818 234.636 40.6136 233.614 37.8182C232.614 35 231.068 32.7386 228.977 31.0341C226.886 29.3295 224.25 28.4773 221.068 28.4773C217.864 28.4773 215.205 29.3295 213.091 31.0341C211 32.7386 209.443 35 208.42 37.8182C207.42 40.6136 206.92 43.6818 206.92 47.0227C206.92 50.3864 207.42 53.4659 208.42 56.2614C209.443 59.0568 211 61.2955 213.091 62.9773C215.205 64.6591 217.864 65.5 221.068 65.5ZM299.835 20.6364L280.847 73H269.938L250.915 20.6364H261.858L275.119 60.9318H275.665L288.892 20.6364H299.835ZM330.202 74.0568C325.043 74.0568 320.599 72.9545 316.872 70.75C313.168 68.5227 310.304 65.3977 308.281 61.375C306.281 57.3295 305.281 52.5909 305.281 47.1591C305.281 41.7955 306.281 37.0682 308.281 32.9773C310.304 28.8864 313.122 25.6932 316.736 23.3977C320.372 21.1023 324.622 19.9545 329.486 19.9545C332.44 19.9545 335.304 20.4432 338.077 21.4205C340.849 22.3977 343.338 23.9318 345.543 26.0227C347.747 28.1136 349.486 30.8295 350.759 34.1705C352.031 37.4886 352.668 41.5227 352.668 46.2727V49.8864H311.043V42.25H342.679C342.679 39.5682 342.134 37.1932 341.043 35.125C339.952 33.0341 338.418 31.3864 336.44 30.1818C334.486 28.9773 332.19 28.375 329.554 28.375C326.69 28.375 324.19 29.0795 322.054 30.4886C319.94 31.875 318.304 33.6932 317.145 35.9432C316.009 38.1705 315.44 40.5909 315.44 43.2045V49.1705C315.44 52.6705 316.054 55.6477 317.281 58.1023C318.531 60.5568 320.27 62.4318 322.497 63.7273C324.724 65 327.327 65.6364 330.304 65.6364C332.236 65.6364 333.997 65.3636 335.588 64.8182C337.179 64.25 338.554 63.4091 339.713 62.2955C340.872 61.1818 341.759 59.8068 342.372 58.1705L352.02 59.9091C351.247 62.75 349.861 65.2386 347.861 67.375C345.884 69.4886 343.395 71.1364 340.395 72.3182C337.418 73.4773 334.02 74.0568 330.202 74.0568ZM363.977 73V20.6364H373.83V28.9545H374.375C375.33 26.1364 377.011 23.9205 379.42 22.3068C381.852 20.6705 384.602 19.8523 387.67 19.8523C388.307 19.8523 389.057 19.875 389.92 19.9205C390.807 19.9659 391.5 20.0227 392 20.0909V29.8409C391.591 29.7273 390.864 29.6023 389.818 29.4659C388.773 29.3068 387.727 29.2273 386.682 29.2273C384.273 29.2273 382.125 29.7386 380.239 30.7614C378.375 31.7614 376.898 33.1591 375.807 34.9545C374.716 36.7273 374.17 38.75 374.17 41.0227V73H363.977Z" fill="white"/>
</svg>
