<svg width="302" height="96" viewBox="0 0 302 96" fill="none" xmlns="http://www.w3.org/2000/svg">
<path d="M300.778 23.2012L284.475 28.9504L278.183 45.1807L272.492 28.7304L256.411 22.3867L272.714 16.6375L279.005 0.407195L284.697 16.8575L300.778 23.2012Z" fill="#E4DB00"/>
<path d="M32.9531 62.8613C32.9531 61.8965 32.8047 61.0306 32.5078 60.2637C32.2357 59.472 31.7161 58.7546 30.9492 58.1113C30.1823 57.4434 29.1061 56.7878 27.7207 56.1445C26.3353 55.5013 24.5417 54.8333 22.3398 54.1406C19.8906 53.349 17.5651 52.4583 15.3633 51.4688C13.1862 50.4792 11.2565 49.3288 9.57422 48.0176C7.91667 46.6816 6.60547 45.1354 5.64062 43.3789C4.70052 41.6224 4.23047 39.5814 4.23047 37.2559C4.23047 35.0046 4.72526 32.9635 5.71484 31.1328C6.70443 29.2773 8.08984 27.694 9.87109 26.3828C11.6523 25.0469 13.7552 24.0202 16.1797 23.3027C18.6289 22.5853 21.3132 22.2266 24.2324 22.2266C28.2155 22.2266 31.6914 22.944 34.6602 24.3789C37.6289 25.8138 39.9297 27.7806 41.5625 30.2793C43.2201 32.778 44.0488 35.6354 44.0488 38.8516H32.9902C32.9902 37.2682 32.6562 35.8828 31.9883 34.6953C31.3451 33.4831 30.3555 32.5306 29.0195 31.8379C27.7083 31.1452 26.0508 30.7988 24.0469 30.7988C22.1172 30.7988 20.5091 31.0957 19.2227 31.6895C17.9362 32.2585 16.9714 33.0378 16.3281 34.0273C15.6849 34.9922 15.3633 36.0807 15.3633 37.293C15.3633 38.2083 15.5859 39.0371 16.0312 39.7793C16.5013 40.5215 17.194 41.2142 18.1094 41.8574C19.0247 42.5007 20.1504 43.1068 21.4863 43.6758C22.8223 44.2448 24.3685 44.8014 26.125 45.3457C29.069 46.2363 31.6543 47.2383 33.8809 48.3516C36.1322 49.4648 38.0124 50.7142 39.5215 52.0996C41.0306 53.485 42.1686 55.056 42.9355 56.8125C43.7025 58.569 44.0859 60.5605 44.0859 62.7871C44.0859 65.1374 43.6283 67.2402 42.7129 69.0957C41.7975 70.9512 40.474 72.5221 38.7422 73.8086C37.0104 75.0951 34.9447 76.0723 32.5449 76.7402C30.1452 77.4082 27.4609 77.7422 24.4922 77.7422C21.8203 77.7422 19.1855 77.3958 16.5879 76.7031C13.9902 75.9857 11.6276 74.9095 9.5 73.4746C7.39714 72.0397 5.71484 70.209 4.45312 67.9824C3.19141 65.7559 2.56055 63.1211 2.56055 60.0781H13.7305C13.7305 61.7604 13.9902 63.1829 14.5098 64.3457C15.0293 65.5085 15.7591 66.4486 16.6992 67.166C17.6641 67.8835 18.8021 68.403 20.1133 68.7246C21.4492 69.0462 22.9089 69.207 24.4922 69.207C26.4219 69.207 28.0052 68.9349 29.2422 68.3906C30.5039 67.8464 31.4316 67.0918 32.0254 66.127C32.6439 65.1621 32.9531 64.0736 32.9531 62.8613ZM69.4688 77.7422C66.3516 77.7422 63.556 77.2474 61.082 76.2578C58.6081 75.2435 56.5052 73.8457 54.7734 72.0645C53.0664 70.2832 51.7552 68.2174 50.8398 65.8672C49.9245 63.4922 49.4668 60.9688 49.4668 58.2969V56.8125C49.4668 53.7695 49.8997 50.9863 50.7656 48.4629C51.6315 45.9395 52.8685 43.75 54.4766 41.8945C56.1094 40.0391 58.0885 38.6165 60.4141 37.627C62.7396 36.6126 65.362 36.1055 68.2812 36.1055C71.1263 36.1055 73.6497 36.5755 75.8516 37.5156C78.0534 38.4557 79.8965 39.7917 81.3809 41.5234C82.89 43.2552 84.028 45.3333 84.7949 47.7578C85.5618 50.1576 85.9453 52.8294 85.9453 55.7734V60.2266H54.0312V53.1016H75.4434V52.2852C75.4434 50.8008 75.1712 49.4772 74.627 48.3145C74.1074 47.127 73.3158 46.1868 72.252 45.4941C71.1882 44.8014 69.8275 44.4551 68.1699 44.4551C66.7598 44.4551 65.5475 44.7643 64.5332 45.3828C63.5189 46.0013 62.6901 46.8672 62.0469 47.9805C61.4284 49.0938 60.9583 50.4049 60.6367 51.9141C60.3398 53.3984 60.1914 55.0312 60.1914 56.8125V58.2969C60.1914 59.9049 60.4141 61.3893 60.8594 62.75C61.3294 64.1107 61.985 65.2858 62.8262 66.2754C63.6921 67.265 64.7311 68.0319 65.9434 68.5762C67.1803 69.1204 68.5781 69.3926 70.1367 69.3926C72.0664 69.3926 73.86 69.0215 75.5176 68.2793C77.1999 67.5124 78.6471 66.362 79.8594 64.8281L85.0547 70.4688C84.2135 71.681 83.0632 72.8438 81.6035 73.957C80.1686 75.0703 78.4368 75.9857 76.4082 76.7031C74.3796 77.3958 72.0664 77.7422 69.4688 77.7422ZM113.703 67.9453V50.0586C113.703 48.7721 113.493 47.6712 113.072 46.7559C112.652 45.8158 111.996 45.0859 111.105 44.5664C110.24 44.0469 109.114 43.7871 107.729 43.7871C106.541 43.7871 105.514 43.9974 104.648 44.418C103.783 44.8138 103.115 45.3952 102.645 46.1621C102.174 46.9043 101.939 47.7826 101.939 48.7969H91.252C91.252 47.0898 91.6478 45.4694 92.4395 43.9355C93.2311 42.4017 94.3815 41.0534 95.8906 39.8906C97.3997 38.7031 99.1934 37.7754 101.271 37.1074C103.374 36.4395 105.725 36.1055 108.322 36.1055C111.439 36.1055 114.21 36.625 116.635 37.6641C119.059 38.7031 120.964 40.2617 122.35 42.3398C123.76 44.418 124.465 47.0156 124.465 50.1328V67.3145C124.465 69.5163 124.601 71.3223 124.873 72.7324C125.145 74.1178 125.541 75.3301 126.061 76.3691V77H115.262C114.742 75.9115 114.346 74.5508 114.074 72.918C113.827 71.2604 113.703 69.6029 113.703 67.9453ZM115.113 52.5449L115.188 58.5938H109.213C107.803 58.5938 106.578 58.7546 105.539 59.0762C104.5 59.3978 103.646 59.8555 102.979 60.4492C102.311 61.0182 101.816 61.6862 101.494 62.4531C101.197 63.2201 101.049 64.0612 101.049 64.9766C101.049 65.8919 101.259 66.7207 101.68 67.4629C102.1 68.1803 102.706 68.7493 103.498 69.1699C104.29 69.5658 105.217 69.7637 106.281 69.7637C107.889 69.7637 109.287 69.4421 110.475 68.7988C111.662 68.1556 112.577 67.3639 113.221 66.4238C113.889 65.4837 114.235 64.5931 114.26 63.752L117.08 68.2793C116.684 69.2936 116.14 70.3451 115.447 71.4336C114.779 72.5221 113.926 73.5488 112.887 74.5137C111.848 75.4538 110.598 76.2331 109.139 76.8516C107.679 77.4453 105.947 77.7422 103.943 77.7422C101.395 77.7422 99.082 77.235 97.0039 76.2207C94.9505 75.1816 93.3177 73.7591 92.1055 71.9531C90.918 70.1224 90.3242 68.0443 90.3242 65.7188C90.3242 63.6159 90.7201 61.748 91.5117 60.1152C92.3034 58.4824 93.4661 57.1094 95 55.9961C96.5586 54.8581 98.5007 54.0046 100.826 53.4355C103.152 52.8418 105.848 52.5449 108.916 52.5449H115.113Z" fill="white"/>
<path d="M140.328 53.041V77H132.172V46.3574H139.847L140.328 53.041ZM149.561 46.1592L149.419 53.7207C149.022 53.6641 148.541 53.6169 147.975 53.5791C147.427 53.5225 146.927 53.4941 146.474 53.4941C145.322 53.4941 144.321 53.6452 143.472 53.9473C142.641 54.2305 141.942 54.6553 141.376 55.2217C140.828 55.7881 140.413 56.4772 140.13 57.2891C139.866 58.1009 139.715 59.026 139.677 60.0645L138.034 59.5547C138.034 57.5723 138.232 55.7503 138.629 54.0889C139.025 52.4085 139.601 50.9453 140.356 49.6992C141.131 48.4531 142.075 47.4902 143.188 46.8105C144.302 46.1309 145.577 45.791 147.012 45.791C147.465 45.791 147.927 45.8288 148.399 45.9043C148.871 45.9609 149.258 46.0459 149.561 46.1592ZM165.505 71.1943C166.506 71.1943 167.393 71.0055 168.167 70.6279C168.941 70.2314 169.545 69.6839 169.979 68.9854C170.433 68.2679 170.669 67.4277 170.688 66.4648H178.362C178.343 68.6172 177.768 70.5335 176.635 72.2139C175.502 73.8753 173.982 75.1875 172.075 76.1504C170.168 77.0944 168.035 77.5664 165.675 77.5664C163.296 77.5664 161.219 77.1699 159.444 76.377C157.688 75.584 156.225 74.4889 155.055 73.0918C153.884 71.6758 153.006 70.0332 152.421 68.1641C151.836 66.276 151.543 64.2559 151.543 62.1035V61.2822C151.543 59.111 151.836 57.0908 152.421 55.2217C153.006 53.3337 153.884 51.6911 155.055 50.2939C156.225 48.8779 157.688 47.7734 159.444 46.9805C161.2 46.1875 163.258 45.791 165.618 45.791C168.129 45.791 170.329 46.2725 172.217 47.2354C174.124 48.1982 175.615 49.5765 176.691 51.3701C177.786 53.1449 178.343 55.25 178.362 57.6855H170.688C170.669 56.666 170.451 55.7409 170.036 54.9102C169.64 54.0794 169.054 53.4186 168.28 52.9277C167.525 52.418 166.59 52.1631 165.477 52.1631C164.287 52.1631 163.315 52.418 162.56 52.9277C161.804 53.4186 161.219 54.0983 160.804 54.9668C160.388 55.8164 160.096 56.7887 159.926 57.8838C159.775 58.96 159.699 60.0928 159.699 61.2822V62.1035C159.699 63.293 159.775 64.4352 159.926 65.5303C160.077 66.6253 160.36 67.5977 160.775 68.4473C161.21 69.2969 161.804 69.9671 162.56 70.458C163.315 70.9489 164.297 71.1943 165.505 71.1943ZM191.05 33.5V77H182.894V33.5H191.05ZM189.889 60.6025H187.651C187.67 58.4691 187.953 56.5055 188.501 54.7119C189.049 52.8994 189.832 51.3324 190.852 50.0107C191.871 48.6702 193.089 47.6318 194.505 46.8955C195.94 46.1592 197.526 45.791 199.263 45.791C200.773 45.791 202.142 46.0081 203.369 46.4424C204.615 46.8577 205.682 47.5374 206.569 48.4814C207.476 49.4066 208.174 50.6243 208.665 52.1348C209.156 53.6452 209.401 55.4766 209.401 57.6289V77H201.188V57.5723C201.188 56.2129 200.99 55.1462 200.594 54.3721C200.216 53.5791 199.659 53.0221 198.923 52.7012C198.205 52.3613 197.318 52.1914 196.261 52.1914C195.09 52.1914 194.09 52.4085 193.259 52.8428C192.447 53.277 191.796 53.8812 191.305 54.6553C190.814 55.4105 190.455 56.2979 190.229 57.3174C190.002 58.3369 189.889 59.432 189.889 60.6025ZM229.707 77.5664C227.328 77.5664 225.195 77.1888 223.307 76.4336C221.419 75.6595 219.814 74.5928 218.492 73.2334C217.189 71.874 216.189 70.2975 215.49 68.5039C214.792 66.6914 214.442 64.7656 214.442 62.7266V61.5938C214.442 59.2715 214.773 57.1475 215.434 55.2217C216.094 53.2959 217.038 51.625 218.266 50.209C219.512 48.793 221.022 47.7074 222.797 46.9521C224.572 46.1781 226.573 45.791 228.801 45.791C230.972 45.791 232.898 46.1497 234.578 46.8672C236.258 47.5846 237.665 48.6042 238.798 49.9258C239.95 51.2474 240.818 52.8333 241.403 54.6836C241.989 56.515 242.281 58.554 242.281 60.8008V64.1992H217.926V58.7617H234.267V58.1387C234.267 57.0059 234.059 55.9958 233.644 55.1084C233.247 54.2021 232.643 53.4847 231.831 52.9561C231.019 52.4274 229.981 52.1631 228.716 52.1631C227.64 52.1631 226.715 52.3991 225.94 52.8711C225.166 53.3431 224.534 54.0039 224.043 54.8535C223.571 55.7031 223.212 56.7038 222.967 57.8555C222.74 58.9883 222.627 60.2344 222.627 61.5938V62.7266C222.627 63.9538 222.797 65.0866 223.137 66.125C223.495 67.1634 223.996 68.0602 224.638 68.8154C225.299 69.5706 226.091 70.1559 227.017 70.5713C227.961 70.9867 229.027 71.1943 230.217 71.1943C231.689 71.1943 233.058 70.9111 234.323 70.3447C235.607 69.7594 236.712 68.8815 237.637 67.7109L241.602 72.0156C240.96 72.9408 240.082 73.8281 238.968 74.6777C237.873 75.5273 236.551 76.2259 235.003 76.7734C233.455 77.3021 231.689 77.5664 229.707 77.5664ZM255.082 53.041V77H246.926V46.3574H254.601L255.082 53.041ZM264.314 46.1592L264.173 53.7207C263.776 53.6641 263.295 53.6169 262.729 53.5791C262.181 53.5225 261.681 53.4941 261.228 53.4941C260.076 53.4941 259.075 53.6452 258.226 53.9473C257.395 54.2305 256.696 54.6553 256.13 55.2217C255.582 55.7881 255.167 56.4772 254.884 57.2891C254.619 58.1009 254.468 59.026 254.431 60.0645L252.788 59.5547C252.788 57.5723 252.986 55.7503 253.383 54.0889C253.779 52.4085 254.355 50.9453 255.11 49.6992C255.884 48.4531 256.828 47.4902 257.942 46.8105C259.056 46.1309 260.331 45.791 261.766 45.791C262.219 45.791 262.681 45.8288 263.153 45.9043C263.625 45.9609 264.012 46.0459 264.314 46.1592Z" fill="white"/>
</svg>
