<svg width="23" height="30" viewBox="0 0 23 30" fill="none" xmlns="http://www.w3.org/2000/svg">
<path d="M16.3438 21.5586C16.3438 21.0508 16.2656 20.5951 16.1094 20.1914C15.9661 19.7747 15.6927 19.3971 15.2891 19.0586C14.8854 18.707 14.319 18.362 13.5898 18.0234C12.8607 17.6849 11.9167 17.3333 10.7578 16.9688C9.46875 16.5521 8.24479 16.0833 7.08594 15.5625C5.9401 15.0417 4.92448 14.4362 4.03906 13.7461C3.16667 13.043 2.47656 12.2292 1.96875 11.3047C1.47396 10.3802 1.22656 9.30599 1.22656 8.08203C1.22656 6.89714 1.48698 5.82292 2.00781 4.85938C2.52865 3.88281 3.25781 3.04948 4.19531 2.35938C5.13281 1.65625 6.23958 1.11589 7.51562 0.738281C8.80469 0.360677 10.2174 0.171875 11.7539 0.171875C13.8503 0.171875 15.6797 0.549479 17.2422 1.30469C18.8047 2.0599 20.0156 3.09505 20.875 4.41016C21.7474 5.72526 22.1836 7.22917 22.1836 8.92188H16.3633C16.3633 8.08854 16.1875 7.35938 15.8359 6.73438C15.4974 6.09635 14.9766 5.59505 14.2734 5.23047C13.5833 4.86589 12.7109 4.68359 11.6562 4.68359C10.6406 4.68359 9.79427 4.83984 9.11719 5.15234C8.4401 5.45182 7.93229 5.86198 7.59375 6.38281C7.25521 6.89062 7.08594 7.46354 7.08594 8.10156C7.08594 8.58333 7.20312 9.01953 7.4375 9.41016C7.6849 9.80078 8.04948 10.1654 8.53125 10.5039C9.01302 10.8424 9.60547 11.1615 10.3086 11.4609C11.0117 11.7604 11.8255 12.0534 12.75 12.3398C14.2995 12.8086 15.6602 13.3359 16.832 13.9219C18.0169 14.5078 19.0065 15.1654 19.8008 15.8945C20.5951 16.6237 21.194 17.4505 21.5977 18.375C22.0013 19.2995 22.2031 20.3477 22.2031 21.5195C22.2031 22.7565 21.9622 23.8633 21.4805 24.8398C20.9987 25.8164 20.3021 26.6432 19.3906 27.3203C18.4792 27.9974 17.3919 28.5117 16.1289 28.8633C14.8659 29.2148 13.4531 29.3906 11.8906 29.3906C10.4844 29.3906 9.09766 29.2083 7.73047 28.8438C6.36328 28.4661 5.11979 27.8997 4 27.1445C2.89323 26.3893 2.00781 25.4258 1.34375 24.2539C0.679688 23.082 0.347656 21.6953 0.347656 20.0938H6.22656C6.22656 20.9792 6.36328 21.7279 6.63672 22.3398C6.91016 22.9518 7.29427 23.4466 7.78906 23.8242C8.29688 24.2018 8.89583 24.4753 9.58594 24.6445C10.2891 24.8138 11.0573 24.8984 11.8906 24.8984C12.9062 24.8984 13.7396 24.7552 14.3906 24.4688C15.0547 24.1823 15.543 23.7852 15.8555 23.2773C16.181 22.7695 16.3438 22.1966 16.3438 21.5586Z" fill="white"/>
</svg>
