<svg width="15" height="15" viewBox="0 0 15 15" fill="none" xmlns="http://www.w3.org/2000/svg">
<path d="M7.06827 0.626465C5.79394 0.626465 4.54822 1.00435 3.48865 1.71233C2.42908 2.42031 1.60325 3.42659 1.11558 4.60392C0.627914 5.78125 0.500318 7.07676 0.748928 8.3266C0.997538 9.57645 1.61119 10.7245 2.51228 11.6256C3.41337 12.5267 4.56143 13.1403 5.81127 13.3889C7.06112 13.6376 8.35662 13.51 9.53395 13.0223C10.7113 12.5346 11.7176 11.7088 12.4255 10.6492C13.1335 9.58966 13.5114 8.34394 13.5114 7.06961C13.5113 5.36081 12.8324 3.72204 11.6241 2.51374C10.4158 1.30544 8.77706 0.626574 7.06827 0.626465V0.626465Z" stroke="white" stroke-opacity="0.7" stroke-width="1.00189" stroke-miterlimit="10"/>
</svg>
